<svg width="772" height="256" viewBox="0 0 772 256" fill="none" xmlns="http://www.w3.org/2000/svg">
<g clip-path="url(#clip0_55324_455)">
<path d="M124.849 0L78.3848 21.0155V63.416L88.3792 67.7219V31.8574L119.875 45.7495V126.297L90.8254 139.218V226.592L58.796 240.716V116.777L90.8254 102.657V120.623L100.819 116.317V91.323L88.3792 85.9617L78.3848 81.6564L53.7514 71.0468L46.4458 74.3527V74.3477L7.31122 92.0478V224.943L17.3057 229.798V102.89L48.8018 116.772V256L100.819 233.071V145.433L129.87 132.511V45.7495L161.894 31.6252V194.758L129.87 208.882V168.603L119.875 173.458V224.167L171.888 201.237V20.7457L124.849 0ZM24.5157 95.1931L53.8274 81.9405L83.4819 95.0129L53.7989 108.1L24.5157 95.1931ZM124.872 37.0721L95.5894 24.1605L124.896 10.9081L154.556 23.9853L124.872 37.0721Z" fill="#262626"/>
<path d="M318.516 186.686H297.347V135.957H251.567V186.686H230.4V71.1875H251.567V116.92H297.347V71.1875H318.516V186.686Z" fill="#262626"/>
<path d="M402.808 150.795C402.808 161.51 399.438 170.168 392.697 176.778C385.957 183.383 377.465 186.686 367.22 186.686C356.767 186.686 348.167 183.407 341.427 176.853C334.686 170.3 331.316 161.614 331.316 150.795V107.569H352.482V152.513C352.482 156.986 353.867 160.571 356.636 163.275C359.41 165.983 362.935 167.332 367.22 167.332C371.298 167.332 374.72 165.983 377.489 163.275C380.257 160.571 381.645 156.986 381.645 152.513V107.569H402.808V150.795Z" fill="#262626"/>
<path d="M487.027 117.325C494.081 124.968 497.609 134.617 497.609 146.271C497.609 157.919 494.081 167.568 487.027 175.216C479.968 182.864 470.956 186.686 459.98 186.686C449.001 186.686 440.697 182.835 435.049 175.136V184.813H415.608V69.3143H436.777V115.06C442.313 108.922 450.051 105.856 459.98 105.856C470.956 105.856 479.968 109.677 487.027 117.325ZM470.407 161.642C474.221 157.736 476.127 152.564 476.127 146.115C476.127 139.764 474.195 134.645 470.325 130.744C466.461 126.842 461.702 124.893 456.06 124.893C450.623 124.893 445.996 126.738 442.185 130.432C438.367 134.126 436.464 139.401 436.464 146.271C436.464 153.239 438.393 158.519 442.261 162.109C446.128 165.695 450.729 167.492 456.06 167.492C461.807 167.492 466.589 165.539 470.407 161.642Z" fill="#262626"/>
<path d="M581.904 150.795C581.904 161.51 578.533 170.168 571.79 176.778C565.049 183.383 556.555 186.686 546.31 186.686C535.863 186.686 527.263 183.407 520.519 176.853C513.779 170.3 510.409 161.614 510.409 150.795V107.569H531.571V152.513C531.571 156.986 532.96 160.571 535.728 163.275C538.496 165.983 542.024 167.332 546.31 167.332C550.387 167.332 553.81 165.983 556.584 163.275C559.352 160.571 560.735 156.986 560.735 152.513V107.569H581.904V150.795Z" fill="#262626"/>
<path d="M666.122 117.325C673.182 124.968 676.707 134.617 676.707 146.271C676.707 157.919 673.182 167.568 666.122 175.216C659.069 182.864 650.052 186.686 639.075 186.686C628.102 186.686 619.792 182.835 614.151 175.136V184.813H594.703V69.3143H615.875V115.06C621.411 108.922 629.149 105.856 639.075 105.856C650.052 105.856 659.069 109.677 666.122 117.325ZM649.505 161.642C653.317 157.736 655.228 152.564 655.228 146.115C655.228 139.764 653.293 134.645 649.426 130.744C645.556 126.842 640.803 124.893 635.156 124.893C629.725 124.893 625.097 126.738 621.28 130.432C617.468 134.126 615.557 139.401 615.557 146.271C615.557 153.239 617.492 158.519 621.362 162.109C625.229 165.695 629.827 167.492 635.156 167.492C640.905 167.492 645.69 165.539 649.505 161.642Z" fill="#262626"/>
<path d="M760.926 117.325C767.982 124.968 771.507 134.617 771.507 146.271C771.507 157.919 767.982 167.568 760.926 175.216C753.867 182.864 744.855 186.686 733.882 186.686C722.903 186.686 714.596 182.835 708.951 175.136V184.813H689.507V69.3143H710.676V115.06C716.212 108.922 723.949 105.856 733.882 105.856C744.855 105.856 753.867 109.677 760.926 117.325ZM744.306 161.642C748.123 157.736 750.029 152.564 750.029 146.115C750.029 139.764 748.094 134.645 744.227 130.744C740.362 126.842 735.604 124.893 729.962 124.893C724.522 124.893 719.901 126.738 716.083 130.432C712.269 134.126 710.363 139.401 710.363 146.271C710.363 153.239 712.298 158.519 716.159 162.109C720.03 165.695 724.628 167.492 729.962 167.492C735.712 167.492 740.491 165.539 744.306 161.642Z" fill="#262626"/>
</g>
<defs>
<clipPath id="clip0_55324_455">
<rect width="771.507" height="256" fill="white"/>
</clipPath>
</defs>
</svg>
