<svg width="256" height="256" viewBox="0 0 256 256" fill="none" xmlns="http://www.w3.org/2000/svg">
<path d="M163.249 0L116.785 21.0155V63.416L126.779 67.7219V31.8574L158.275 45.7495V126.297L129.226 139.218V226.592L97.1962 240.716V116.777L129.226 102.657V120.623L139.22 116.317V91.323L126.779 85.9617L116.785 81.6564L92.1516 71.0468L84.846 74.3527V74.3477L45.7114 92.0478V224.943L55.7059 229.798V102.89L87.202 116.772V256L139.22 233.071V145.433L168.27 132.511V45.7495L200.294 31.6252V194.758L168.27 208.882V168.603L158.275 173.458V224.167L210.289 201.237V20.7457L163.249 0ZM62.9159 95.1931L92.2276 81.9405L121.882 95.0129L92.1991 108.1L62.9159 95.1931ZM163.273 37.0721L133.99 24.1605L163.296 10.9081L192.956 23.9853L163.273 37.0721Z" fill="#262626"/>
</svg>
