<svg width="1000" height="1000" viewBox="0 0 1000 1000" fill="none" xmlns="http://www.w3.org/2000/svg">
<path fill-rule="evenodd" clip-rule="evenodd" d="M921.794 338.156C922.366 351.491 923.862 364.738 926.281 377.898C926.708 377.471 927.137 377.043 927.563 376.616C927.833 378.613 928.474 380.322 929.486 381.744C930.757 390.05 931.184 398.597 930.768 407.384C966.877 415.93 989.741 438.151 999.356 474.048C1000.21 526.611 1000.21 579.173 999.356 631.735C993.048 667.89 972.327 690.966 937.178 700.964C936.794 727.196 931.452 752.409 921.153 776.602C891.508 842.569 842.578 887.653 774.364 911.854C740.493 922.342 705.879 928.966 670.521 931.725C663.356 954.064 648.827 969.662 626.933 978.518C592.88 988.25 565.317 979.062 544.243 950.955C525.007 914.495 530.349 882.23 560.268 854.163C597.516 830.733 631.062 835.22 660.906 867.624C664.264 871.35 666.615 875.623 667.957 880.445C669.026 882.044 670.735 882.9 673.085 883.009C677.235 882.78 681.081 881.925 684.623 880.445C685.905 880.445 687.187 880.445 688.469 880.445C698.726 880.232 708.556 878.523 717.955 875.316C759.049 868.224 795.8 851.772 828.208 825.959C852.394 802.983 869.915 775.847 880.77 744.552C882.596 741.969 883.45 738.978 883.334 735.578C884.055 731.673 884.91 727.827 885.898 724.04C886.824 723.504 887.465 722.65 887.821 721.476C888.74 716.813 889.381 712.112 889.744 707.374C889.672 704.63 888.817 702.494 887.18 700.964C856.144 691.931 837.983 671.418 832.695 639.427C831.84 582.164 831.84 524.902 832.695 467.638C838.379 440.378 853.978 421.575 879.488 411.23C869.364 280.44 807.4 182.793 693.597 118.291C624.935 81.267 551.433 65.242 473.092 70.2161C463.392 70.5648 453.991 71.8469 444.888 74.0622C345.148 89.2104 263.313 135.79 199.383 213.801C155.886 269.185 130.887 332.003 124.386 402.256C124.6 405.247 124.813 408.239 125.027 411.23C147.126 421.785 161.228 438.879 167.333 462.51C168.188 522.338 168.188 582.164 167.333 641.991C159.176 676.644 137.595 697.369 102.592 704.169C51.4219 710.341 17.8756 689.188 1.95435 640.709C0.506967 611.476 -0.134037 582.204 0.0313421 552.892C-0.154549 524.839 0.486455 496.849 1.95435 468.92C12.7463 433.118 36.4634 412.179 73.1057 406.102C72.7442 399.145 73.1711 392.308 74.3877 385.59C76.7915 377.809 78.0735 369.69 78.2338 361.232C78.2338 360.805 78.2338 360.377 78.2338 359.95C83.9861 348.908 86.9771 336.943 87.2078 324.054C89.0334 321.47 89.8872 318.479 89.7718 315.079C132.131 193.855 212.043 106.465 329.507 52.909C461.606 0.291636 590.662 6.70167 716.673 72.1391C813.511 125.372 879.534 204.215 914.743 308.669C917.669 318.386 920.019 328.215 921.794 338.156Z" fill="black"/>
<path fill-rule="evenodd" clip-rule="evenodd" d="M505.142 933.006C495.293 932.977 485.463 932.549 475.656 931.724C475.229 931.724 474.801 931.724 474.374 931.724C471.791 929.899 468.8 929.045 465.4 929.16C420.623 915.76 377.463 898.024 335.917 875.957C298.106 856.421 261.783 834.626 226.947 810.575C209.242 795.466 198.345 776.449 194.256 753.525C193.4 627.034 193.4 500.543 194.256 374.051C198.72 351.228 210.043 332.639 228.229 318.284C303.927 267.835 385.549 229.374 473.092 202.903C494.548 198.392 515.915 198.819 537.192 204.185C614.912 228.792 687.986 262.978 756.416 306.746C772.382 316.301 785.415 328.908 795.517 344.565C800.203 353.067 803.62 362.042 805.773 371.487C806.628 497.979 806.628 624.47 805.773 750.961C801.196 774.003 789.872 793.02 771.8 808.011C763.051 814.735 754.077 821.145 744.878 827.241C725.985 831.532 706.969 835.165 687.828 838.138C679.209 832.537 670.876 826.34 662.829 819.549C690.233 804.999 715.873 787.906 739.749 768.268C746.758 762.124 751.672 754.646 754.493 745.833C755.348 623.188 755.348 500.543 754.493 377.897C750.638 368.486 744.442 361.008 735.903 355.462C672.029 313.7 603.655 280.796 530.782 256.748C514.811 250.326 498.572 249.472 482.066 254.184C402.991 279.624 328.634 314.665 258.997 359.308C252.525 364.071 248.038 370.267 245.536 377.897C244.263 503.179 244.69 628.389 246.818 753.525C249.401 759.96 253.461 765.301 258.997 769.55C330.675 818.421 408.023 856.027 491.04 882.367C496.15 883.007 501.278 883.221 506.424 883.008C504.247 891.586 502.965 900.346 502.578 909.289C503.185 917.231 504.04 925.137 505.142 933.006Z" fill="black"/>
<path fill-rule="evenodd" clip-rule="evenodd" d="M651.291 497.124C651.647 519.808 651.22 542.457 650.009 565.071C644.242 579.837 633.345 587.956 617.318 589.429C602.018 587.807 590.908 580.115 583.985 566.353C581.939 543.761 581.511 521.112 582.703 498.406C593.152 471.933 611.313 464.882 637.189 477.253C644.15 482.289 648.85 488.912 651.291 497.124Z" fill="black"/>
<path fill-rule="evenodd" clip-rule="evenodd" d="M414.12 490.714C414.149 493.826 414.79 496.817 416.043 499.688C416.684 519.768 416.898 539.853 416.684 559.943C412.717 578.411 401.179 588.24 382.07 589.429C364.959 587.73 353.849 578.756 348.737 562.507C348.381 539.823 348.808 517.173 350.019 494.56C359.713 472.863 375.952 466.241 398.736 474.689C405.852 478.172 410.98 483.513 414.12 490.714Z" fill="black"/>
<path fill-rule="evenodd" clip-rule="evenodd" d="M642.317 663.785C656.403 661.325 667.3 666.025 675.008 677.887C678.669 688.322 676.959 697.724 669.88 706.092C621.201 754.517 562.442 776.097 493.604 770.833C478.018 762.069 473.96 749.462 481.425 733.014C485.169 728.409 489.656 724.777 494.886 722.117C537.02 725.046 575.48 714.79 610.266 691.348C620.44 681.374 631.123 672.188 642.317 663.785Z" fill="black"/>
</svg>
